<svg xmlns="http://www.w3.org/2000/svg" width="25" height="24" viewBox="0 0 25 24" fill="none">
  <g clip-path="url(#clip0_2_111)">
    <path d="M0.911077 11.8564C0.910514 13.8728 1.44151 15.8418 2.4512 17.5772L0.814514 23.5067L6.93002 21.9156C8.62148 22.8293 10.5166 23.3081 12.4425 23.3082H12.4476C18.8052 23.3082 23.9805 18.1749 23.9832 11.8654C23.9845 8.80798 22.7856 5.93301 20.6074 3.77003C18.4296 1.60724 15.5332 0.415519 12.4471 0.414124C6.0887 0.414124 0.913702 5.54715 0.911077 11.8564Z" fill="url(#paint0_linear_2_111)"/>
    <path d="M0.499238 11.8527C0.498582 13.9417 1.04861 15.981 2.0943 17.7786L0.398926 23.9207L6.73371 22.2726C8.47914 23.2168 10.4443 23.7147 12.444 23.7154H12.4492C19.0349 23.7154 24.3961 18.3975 24.3989 11.8621C24.4001 8.69488 23.1581 5.71656 20.9021 3.47609C18.6458 1.23591 15.6458 0.00130233 12.4492 0C5.8623 0 0.501863 5.31721 0.499238 11.8527ZM4.27174 17.469L4.03521 17.0965C3.04089 15.5277 2.51608 13.7149 2.51683 11.8534C2.51899 6.4213 6.97436 2.00186 12.4529 2.00186C15.1061 2.00298 17.5994 3.02921 19.4748 4.89116C21.3501 6.7533 22.382 9.22865 22.3813 11.8614C22.3789 17.2935 17.9234 21.7135 12.4492 21.7135H12.4452C10.6628 21.7126 8.91461 21.2376 7.39005 20.34L7.02724 20.1265L3.26805 21.1045L4.27174 17.4689V17.469Z" fill="url(#paint1_linear_2_111)"/>
    <path d="M9.46248 6.89746C9.23879 6.40416 9.00339 6.39421 8.79067 6.38556C8.61648 6.37811 8.41735 6.37867 8.21842 6.37867C8.01929 6.37867 7.69576 6.453 7.42229 6.74928C7.14854 7.04583 6.37717 7.76249 6.37717 9.22007C6.37717 10.6777 7.44714 12.0864 7.59629 12.2843C7.74564 12.4817 9.66189 15.5686 12.6968 16.7562C15.219 17.743 15.7323 17.5468 16.2797 17.4973C16.8272 17.448 18.0463 16.7808 18.295 16.089C18.5439 15.3973 18.5439 14.8043 18.4693 14.6804C18.3947 14.557 18.1956 14.4829 17.897 14.3348C17.5983 14.1866 16.1304 13.4698 15.8567 13.371C15.5829 13.2722 15.3839 13.2229 15.1848 13.5195C14.9857 13.8157 14.4139 14.4829 14.2396 14.6804C14.0655 14.8785 13.8912 14.9031 13.5927 14.755C13.2939 14.6063 12.3324 14.2938 11.1915 13.2846C10.3039 12.4993 9.70464 11.5296 9.53045 11.2329C9.35626 10.9367 9.51179 10.7762 9.66151 10.6285C9.79567 10.4958 9.9602 10.2826 10.1096 10.1096C10.2585 9.93663 10.3082 9.81318 10.4078 9.6156C10.5074 9.41783 10.4575 9.24481 10.383 9.09663C10.3082 8.94844 9.72798 7.48323 9.46248 6.89746Z" fill="white"/>
  </g>
  <defs>
    <linearGradient id="paint0_linear_2_111" x1="1159.25" y1="2309.67" x2="1159.25" y2="0.414124" gradientUnits="userSpaceOnUse">
      <stop stop-color="#1FAF38"/>
      <stop offset="1" stop-color="#60D669"/>
    </linearGradient>
    <linearGradient id="paint1_linear_2_111" x1="1200.4" y1="2392.07" x2="1200.4" y2="0" gradientUnits="userSpaceOnUse">
      <stop stop-color="#F9F9F9"/>
      <stop offset="1" stop-color="white"/>
    </linearGradient>
    <clipPath id="clip0_2_111">
      <rect width="24" height="24" fill="white" transform="translate(0.398926)"/>
    </clipPath>
  </defs>
</svg>